<?xml version="1.0" encoding="UTF-8"?>
<!--Generator: Apple Native CoreSVG 175.5-->
<!DOCTYPE svg
PUBLIC "-//W3C//DTD SVG 1.1//EN"
       "http://www.w3.org/Graphics/SVG/1.1/DTD/svg11.dtd">
<svg version="1.1" xmlns="http://www.w3.org/2000/svg" xmlns:xlink="http://www.w3.org/1999/xlink" width="3300" height="2200">
 <!--glyph: "uni1001D5.medium", point size: 100.0, font version: "18.0d12e2", template writer version: "101"-->
 <style>.monochrome-0 {fill:#000000}
.monochrome-1 {fill:#000000}

.multicolor-0:white {fill:#FFFFFF}
.multicolor-1:systemYellowColor {fill:#FFCC00}

.hierarchical-0:primary {fill:#212121}
.hierarchical-1:secondary {fill:#4D4D4D}

.SFSymbolsPreviewFFCC00 {fill:#FFCC00;opacity:1.0}
.SFSymbolsPreviewFFFFFF {fill:#FFFFFF;opacity:1.0}
</style>
 <g id="Notes">
  <rect height="2200" id="artboard" style="fill:white;opacity:1" width="3300" x="0" y="0"/>
  <line style="fill:none;stroke:black;opacity:1;stroke-width:0.5;" x1="263" x2="3036" y1="292" y2="292"/>
  <text style="stroke:none;fill:black;font-family:sans-serif;font-size:13;font-weight:bold;" transform="matrix(1 0 0 1 263 322)">Weight/Scale Variations</text>
  <text style="stroke:none;fill:black;font-family:sans-serif;font-size:13;text-anchor:middle;" transform="matrix(1 0 0 1 559.711 322)">Ultralight</text>
  <text style="stroke:none;fill:black;font-family:sans-serif;font-size:13;text-anchor:middle;" transform="matrix(1 0 0 1 856.422 322)">Thin</text>
  <text style="stroke:none;fill:black;font-family:sans-serif;font-size:13;text-anchor:middle;" transform="matrix(1 0 0 1 1153.13 322)">Light</text>
  <text style="stroke:none;fill:black;font-family:sans-serif;font-size:13;text-anchor:middle;" transform="matrix(1 0 0 1 1449.84 322)">Regular</text>
  <text style="stroke:none;fill:black;font-family:sans-serif;font-size:13;text-anchor:middle;" transform="matrix(1 0 0 1 1746.56 322)">Medium</text>
  <text style="stroke:none;fill:black;font-family:sans-serif;font-size:13;text-anchor:middle;" transform="matrix(1 0 0 1 2043.27 322)">Semibold</text>
  <text style="stroke:none;fill:black;font-family:sans-serif;font-size:13;text-anchor:middle;" transform="matrix(1 0 0 1 2339.98 322)">Bold</text>
  <text style="stroke:none;fill:black;font-family:sans-serif;font-size:13;text-anchor:middle;" transform="matrix(1 0 0 1 2636.69 322)">Heavy</text>
  <text style="stroke:none;fill:black;font-family:sans-serif;font-size:13;text-anchor:middle;" transform="matrix(1 0 0 1 2933.4 322)">Black</text>
  <line style="fill:none;stroke:black;opacity:1;stroke-width:0.5;" x1="263" x2="3036" y1="1903" y2="1903"/>
  <g transform="matrix(1 0 0 1 263 1933)">
   <path d="M9.24805 0.830078C13.5547 0.830078 17.1387-2.74414 17.1387-7.05078C17.1387-11.3574 13.5449-14.9316 9.23828-14.9316C4.94141-14.9316 1.36719-11.3574 1.36719-7.05078C1.36719-2.74414 4.95117 0.830078 9.24805 0.830078ZM9.24805-0.654297C5.70312-0.654297 2.87109-3.49609 2.87109-7.05078C2.87109-10.6055 5.69336-13.4473 9.23828-13.4473C12.793-13.4473 15.6445-10.6055 15.6445-7.05078C15.6445-3.49609 12.8027-0.654297 9.24805-0.654297ZM5.6543-7.05078C5.6543-6.62109 5.95703-6.32812 6.40625-6.32812L8.50586-6.32812L8.50586-4.20898C8.50586-3.76953 8.79883-3.4668 9.22852-3.4668C9.67773-3.4668 9.9707-3.76953 9.9707-4.20898L9.9707-6.32812L12.0898-6.32812C12.5293-6.32812 12.832-6.62109 12.832-7.05078C12.832-7.49023 12.5293-7.79297 12.0898-7.79297L9.9707-7.79297L9.9707-9.90234C9.9707-10.3516 9.67773-10.6543 9.22852-10.6543C8.79883-10.6543 8.50586-10.3516 8.50586-9.90234L8.50586-7.79297L6.40625-7.79297C5.95703-7.79297 5.6543-7.49023 5.6543-7.05078Z"/>
  </g>
  <g transform="matrix(1 0 0 1 281.867 1933)">
   <path d="M11.709 2.91016C17.1582 2.91016 21.6699-1.61133 21.6699-7.05078C21.6699-12.5 17.1484-17.0117 11.6992-17.0117C6.25977-17.0117 1.74805-12.5 1.74805-7.05078C1.74805-1.61133 6.26953 2.91016 11.709 2.91016ZM11.709 1.25C7.09961 1.25 3.41797-2.44141 3.41797-7.05078C3.41797-11.6602 7.08984-15.3516 11.6992-15.3516C16.3086-15.3516 20.0098-11.6602 20.0098-7.05078C20.0098-2.44141 16.3184 1.25 11.709 1.25ZM7.17773-7.05078C7.17773-6.57227 7.50977-6.25 8.00781-6.25L10.8789-6.25L10.8789-3.36914C10.8789-2.88086 11.2109-2.53906 11.6895-2.53906C12.1777-2.53906 12.5195-2.87109 12.5195-3.36914L12.5195-6.25L15.4004-6.25C15.8887-6.25 16.2305-6.57227 16.2305-7.05078C16.2305-7.53906 15.8887-7.88086 15.4004-7.88086L12.5195-7.88086L12.5195-10.752C12.5195-11.25 12.1777-11.5918 11.6895-11.5918C11.2109-11.5918 10.8789-11.25 10.8789-10.752L10.8789-7.88086L8.00781-7.88086C7.50977-7.88086 7.17773-7.53906 7.17773-7.05078Z"/>
  </g>
  <g transform="matrix(1 0 0 1 305.646 1933)">
   <path d="M14.9707 5.66406C21.9336 5.66406 27.6953-0.0976562 27.6953-7.05078C27.6953-14.0137 21.9238-19.7754 14.9609-19.7754C8.00781-19.7754 2.25586-14.0137 2.25586-7.05078C2.25586-0.0976562 8.01758 5.66406 14.9707 5.66406ZM14.9707 3.84766C8.93555 3.84766 4.08203-1.01562 4.08203-7.05078C4.08203-13.0957 8.92578-17.9492 14.9609-17.9492C21.0059-17.9492 25.8691-13.0957 25.8691-7.05078C25.8691-1.01562 21.0156 3.84766 14.9707 3.84766ZM9.19922-7.05078C9.19922-6.5332 9.57031-6.17188 10.1172-6.17188L14.0625-6.17188L14.0625-2.2168C14.0625-1.67969 14.4336-1.29883 14.9512-1.29883C15.4883-1.29883 15.8594-1.66992 15.8594-2.2168L15.8594-6.17188L19.8145-6.17188C20.3516-6.17188 20.7324-6.5332 20.7324-7.05078C20.7324-7.59766 20.3613-7.96875 19.8145-7.96875L15.8594-7.96875L15.8594-11.9141C15.8594-12.4609 15.4883-12.8418 14.9512-12.8418C14.4336-12.8418 14.0625-12.4609 14.0625-11.9141L14.0625-7.96875L10.1172-7.96875C9.57031-7.96875 9.19922-7.59766 9.19922-7.05078Z"/>
  </g>
  <text style="stroke:none;fill:black;font-family:sans-serif;font-size:13;font-weight:bold;" transform="matrix(1 0 0 1 263 1953)">Design Variations</text>
  <text style="stroke:none;fill:black;font-family:sans-serif;font-size:13;" transform="matrix(1 0 0 1 263 1971)">Symbols are supported in up to nine weights and three scales.</text>
  <text style="stroke:none;fill:black;font-family:sans-serif;font-size:13;" transform="matrix(1 0 0 1 263 1989)">For optimal layout with text and other symbols, vertically align</text>
  <text style="stroke:none;fill:black;font-family:sans-serif;font-size:13;" transform="matrix(1 0 0 1 263 2007)">symbols with the adjacent text.</text>
  <line style="fill:none;stroke:#00AEEF;stroke-width:0.5;opacity:1.0;" x1="776" x2="776" y1="1919" y2="1933"/>
  <g transform="matrix(1 0 0 1 776 1933)">
   <path d="M3.31055 0.15625C3.82812 0.15625 4.08203-0.0390625 4.26758-0.585938L5.52734-4.0332L11.2891-4.0332L12.5488-0.585938C12.7344-0.0390625 12.9883 0.15625 13.4961 0.15625C14.0137 0.15625 14.3457-0.15625 14.3457-0.644531C14.3457-0.810547 14.3164-0.966797 14.2383-1.17188L9.6582-13.3691C9.43359-13.9648 9.0332-14.2676 8.4082-14.2676C7.80273-14.2676 7.39258-13.9746 7.17773-13.3789L2.59766-1.16211C2.51953-0.957031 2.49023-0.800781 2.49023-0.634766C2.49023-0.146484 2.80273 0.15625 3.31055 0.15625ZM6.00586-5.51758L8.37891-12.0898L8.42773-12.0898L10.8008-5.51758Z"/>
  </g>
  <line style="fill:none;stroke:#00AEEF;stroke-width:0.5;opacity:1.0;" x1="793.197" x2="793.197" y1="1919" y2="1933"/>
  <text style="stroke:none;fill:black;font-family:sans-serif;font-size:13;font-weight:bold;" transform="matrix(1 0 0 1 776 1953)">Margins</text>
  <text style="stroke:none;fill:black;font-family:sans-serif;font-size:13;" transform="matrix(1 0 0 1 776 1971)">Leading and trailing margins on the left and right side of each symbol</text>
  <text style="stroke:none;fill:black;font-family:sans-serif;font-size:13;" transform="matrix(1 0 0 1 776 1989)">can be adjusted by modifying the x-location of the margin guidelines.</text>
  <text style="stroke:none;fill:black;font-family:sans-serif;font-size:13;" transform="matrix(1 0 0 1 776 2007)">Modifications are automatically applied proportionally to all</text>
  <text style="stroke:none;fill:black;font-family:sans-serif;font-size:13;" transform="matrix(1 0 0 1 776 2025)">scales and weights.</text>
  <g transform="matrix(1 0 0 1 1289 1933)">
   <path d="M2.8418 1.86523L4.54102 3.57422C5.40039 4.44336 6.38672 4.38477 7.31445 3.35938L18.0078-8.42773L17.041-9.4043L6.42578 2.27539C6.07422 2.67578 5.74219 2.77344 5.27344 2.30469L4.10156 1.14258C3.63281 0.683594 3.74023 0.341797 4.14062-0.0195312L15.6152-10.8203L14.6387-11.7871L3.04688-0.898438C2.06055 0.0195312 1.98242 0.996094 2.8418 1.86523ZM9.25781-16.3281C8.83789-15.918 8.80859-15.3418 9.04297-14.9512C9.27734-14.5898 9.73633-14.3555 10.3809-14.5215C11.8457-14.8633 13.3691-14.9219 14.7949-13.9844L14.209-12.5293C13.8672-11.6992 14.043-11.1133 14.5801-10.5664L16.875-8.25195C17.3633-7.76367 17.7734-7.74414 18.3398-7.8418L19.4043-8.03711L20.0684-7.36328L20.0293-6.80664C19.9902-6.30859 20.1172-5.92773 20.6055-5.44922L21.3672-4.70703C21.8457-4.22852 22.4609-4.19922 22.9297-4.66797L25.8398-7.58789C26.3086-8.05664 26.2891-8.65234 25.8105-9.13086L25.0391-9.89258C24.5605-10.3711 24.1895-10.5273 23.7109-10.4883L23.1348-10.4395L22.4902-11.0742L22.7344-12.1973C22.8613-12.7637 22.7051-13.2031 22.1191-13.7891L19.9219-15.9766C16.582-19.2969 12.1484-19.2188 9.25781-16.3281ZM10.752-15.957C13.1836-17.7344 16.4746-17.4316 18.7012-15.2051L21.1328-12.793C21.3672-12.5586 21.4062-12.373 21.3379-12.0312L21.0156-10.5469L22.5195-9.0625L23.5059-9.12109C23.7598-9.13086 23.8379-9.11133 24.0332-8.91602L24.6094-8.33984L22.168-5.89844L21.5918-6.47461C21.3965-6.66992 21.3672-6.74805 21.377-7.01172L21.4453-7.98828L19.9512-9.47266L18.4277-9.21875C18.1055-9.15039 17.959-9.17969 17.7148-9.41406L15.7129-11.416C15.459-11.6504 15.4297-11.8164 15.5859-12.1875L16.4648-14.2773C14.9023-15.7324 12.8711-16.3574 10.8398-15.7617C10.6836-15.7227 10.625-15.8496 10.752-15.957Z"/>
  </g>
  <text style="stroke:none;fill:black;font-family:sans-serif;font-size:13;font-weight:bold;" transform="matrix(1 0 0 1 1289 1953)">Exporting</text>
  <text style="stroke:none;fill:black;font-family:sans-serif;font-size:13;" transform="matrix(1 0 0 1 1289 1971)">Symbols should be outlined when exporting to ensure the</text>
  <text style="stroke:none;fill:black;font-family:sans-serif;font-size:13;" transform="matrix(1 0 0 1 1289 1989)">design is preserved when submitting to Xcode.</text>
  <text id="template-version" style="stroke:none;fill:black;font-family:sans-serif;font-size:13;text-anchor:end;" transform="matrix(1 0 0 1 3036 1933)">Template v.4.0</text>
  <text style="stroke:none;fill:black;font-family:sans-serif;font-size:13;text-anchor:end;" transform="matrix(1 0 0 1 3036 1951)">Requires Xcode 14 or greater</text>
  <text id="descriptive-name" style="stroke:none;fill:black;font-family:sans-serif;font-size:13;text-anchor:end;" transform="matrix(1 0 0 1 3036 1969)">Generated from cloud.sun.fill</text>
  <text style="stroke:none;fill:black;font-family:sans-serif;font-size:13;text-anchor:end;" transform="matrix(1 0 0 1 3036 1987)">Typeset at 100 points</text>
  <text style="stroke:none;fill:black;font-family:sans-serif;font-size:13;" transform="matrix(1 0 0 1 263 726)">Small</text>
  <text style="stroke:none;fill:black;font-family:sans-serif;font-size:13;" transform="matrix(1 0 0 1 263 1156)">Medium</text>
  <text style="stroke:none;fill:black;font-family:sans-serif;font-size:13;" transform="matrix(1 0 0 1 263 1586)">Large</text>
 </g>
 <g id="Guides">
  <g id="H-reference" style="fill:#27AAE1;stroke:none;" transform="matrix(1 0 0 1 339 696)">
   <path d="M0.993654 0L3.63775 0L29.3281-67.1323L30.0303-67.1323L30.0303-70.459L28.1226-70.459ZM11.6885-24.4799L46.9815-24.4799L46.2315-26.7285L12.4385-26.7285ZM55.1196 0L57.7637 0L30.6382-70.459L29.4326-70.459L29.4326-67.1323Z"/>
  </g>
  <line id="Baseline-S" style="fill:none;stroke:#27AAE1;opacity:1;stroke-width:0.5;" x1="263" x2="3036" y1="696" y2="696"/>
  <line id="Capline-S" style="fill:none;stroke:#27AAE1;opacity:1;stroke-width:0.5;" x1="263" x2="3036" y1="625.541" y2="625.541"/>
  <g id="H-reference" style="fill:#27AAE1;stroke:none;" transform="matrix(1 0 0 1 339 1126)">
   <path d="M0.993654 0L3.63775 0L29.3281-67.1323L30.0303-67.1323L30.0303-70.459L28.1226-70.459ZM11.6885-24.4799L46.9815-24.4799L46.2315-26.7285L12.4385-26.7285ZM55.1196 0L57.7637 0L30.6382-70.459L29.4326-70.459L29.4326-67.1323Z"/>
  </g>
  <line id="Baseline-M" style="fill:none;stroke:#27AAE1;opacity:1;stroke-width:0.5;" x1="263" x2="3036" y1="1126" y2="1126"/>
  <line id="Capline-M" style="fill:none;stroke:#27AAE1;opacity:1;stroke-width:0.5;" x1="263" x2="3036" y1="1055.54" y2="1055.54"/>
  <g id="H-reference" style="fill:#27AAE1;stroke:none;" transform="matrix(1 0 0 1 339 1556)">
   <path d="M0.993654 0L3.63775 0L29.3281-67.1323L30.0303-67.1323L30.0303-70.459L28.1226-70.459ZM11.6885-24.4799L46.9815-24.4799L46.2315-26.7285L12.4385-26.7285ZM55.1196 0L57.7637 0L30.6382-70.459L29.4326-70.459L29.4326-67.1323Z"/>
  </g>
  <line id="Baseline-L" style="fill:none;stroke:#27AAE1;opacity:1;stroke-width:0.5;" x1="263" x2="3036" y1="1556" y2="1556"/>
  <line id="Capline-L" style="fill:none;stroke:#27AAE1;opacity:1;stroke-width:0.5;" x1="263" x2="3036" y1="1485.54" y2="1485.54"/>
  <line id="left-margin-Ultralight-S" style="fill:none;stroke:#00AEEF;stroke-width:0.5;opacity:1.0;" x1="505.373" x2="505.373" y1="600.785" y2="720.121"/>
  <line id="right-margin-Ultralight-S" style="fill:none;stroke:#FF3B30;stroke-width:0.5;opacity:1.0;" x1="614.049" x2="614.049" y1="600.785" y2="720.121"/>
  <line id="left-margin-Regular-S" style="fill:none;stroke:#00AEEF;stroke-width:0.5;opacity:1.0;" x1="1393.99" x2="1393.99" y1="600.785" y2="720.121"/>
  <line id="right-margin-Regular-S" style="fill:none;stroke:#FF3B30;stroke-width:0.5;opacity:1.0;" x1="1505.7" x2="1505.7" y1="600.785" y2="720.121"/>
  <line id="left-margin-Black-S" style="fill:none;stroke:#00AEEF;stroke-width:0.5;opacity:1.0;" x1="2872.61" x2="2872.61" y1="600.785" y2="720.121"/>
  <line id="right-margin-Black-S" style="fill:none;stroke:#FF3B30;stroke-width:0.5;opacity:1.0;" x1="2994.19" x2="2994.19" y1="600.785" y2="720.121"/>
 </g>
 <g id="Symbols">
  <g id="Black-S" transform="matrix(1 0 0 1 2872.61 696)">
   <path class="monochrome-0 multicolor-0:white hierarchical-0:primary SFSymbolsPreviewFFFFFF" d="M20.5566 5.9082L68.3105 5.9082C79.5898 5.9082 88.0371-2.92969 88.0371-14.6973C88.0371-27.1484 78.9062-36.1816 66.2598-36.084C62.5-43.0664 55.2246-50.1953 42.0898-50.1953C27.9297-50.1953 16.4062-39.8438 15.332-26.0742C8.10547-24.2676 3.41797-18.1152 3.41797-10.4004C3.41797-0.683594 10.3516 5.9082 20.5566 5.9082Z"/>
   <path class="monochrome-1 multicolor-1:systemYellowColor hierarchical-1:secondary SFSymbolsPreviewFFCC00" d="M95.0684-22.168C99.9023-25.5371 103.223-31.543 103.223-38.2812C103.223-49.3652 94.1895-58.3496 83.1055-58.3496C75.7812-58.3496 69.3359-54.4434 66.2109-49.1699C68.0176-47.4121 69.5801-45.3125 70.8496-42.8223C82.373-42.2852 92.5293-33.7402 95.0684-22.168ZM83.0078-64.2578C85.6445-64.2578 87.793-66.5039 87.793-69.1406L87.793-75.3906C87.793-78.0762 85.6445-80.2734 83.0078-80.2734C80.3711-80.2734 78.2227-78.0762 78.2227-75.3906L78.2227-69.1406C78.2227-66.5039 80.3711-64.2578 83.0078-64.2578ZM113.867-33.4961L120.117-33.4961C122.803-33.4961 125-35.5957 125-38.2324C125-40.8691 122.803-43.0664 120.117-43.0664L113.867-43.0664C111.23-43.0664 108.984-40.8691 108.984-38.2324C108.984-35.5957 111.23-33.4961 113.867-33.4961ZM105.908-8.59375C107.812-6.68945 110.889-6.64062 112.744-8.49609C114.6-10.3516 114.502-13.3789 112.646-15.332L108.301-19.8242C106.494-21.7285 103.271-21.6797 101.416-19.8242C99.5605-17.9688 99.6582-14.8926 101.514-13.0371ZM101.465-56.5918C103.32-54.7363 106.445-54.834 108.301-56.6895L112.744-61.084C114.648-62.9395 114.648-66.0645 112.793-67.9199C110.938-69.7754 107.861-69.7266 105.957-67.8223L101.514-63.4766C99.6094-61.6211 99.6094-58.4473 101.465-56.5918ZM57.7637-56.7383C59.668-54.834 62.7441-54.7852 64.5996-56.6406C66.4551-58.4961 66.3574-61.5234 64.502-63.4766L60.1562-67.9688C58.3496-69.873 55.127-69.8242 53.2715-67.9688C51.416-66.1133 51.5137-63.0371 53.3691-61.1816Z"/>
  </g>
  <g id="Regular-S" transform="matrix(1 0 0 1 1393.99 696)">
   <path class="monochrome-0 multicolor-0:white hierarchical-0:primary SFSymbolsPreviewFFFFFF" d="M20.1172 1.80664L61.377 1.80664C72.4121 1.80664 80.9082-6.54297 80.9082-17.3828C80.9082-28.125 72.2656-36.2305 60.6445-36.3281C56.25-44.6777 48.1934-49.707 38.916-49.707C26.2695-49.707 15.5762-40.0391 14.4043-27.4414C8.00781-25.4395 3.85742-19.873 3.85742-13.0371C3.85742-4.24805 10.4004 1.80664 20.1172 1.80664Z"/>
   <path class="monochrome-1 multicolor-1:systemYellowColor hierarchical-1:secondary SFSymbolsPreviewFFCC00" d="M85.7422-19.3359C91.2109-23.2422 94.4824-29.0527 94.4824-35.6445C94.4824-46.2891 85.9375-54.834 75.293-54.834C68.6035-54.834 62.6953-51.3672 59.3262-46.1426C60.9863-44.5312 62.3535-42.7734 63.5742-40.4785C76.4648-39.4531 84.8145-31.4453 85.7422-19.3359ZM75.293-60.6934C77.3438-60.6934 78.9551-62.3535 78.9551-64.3555L78.9551-71.9727C78.9551-73.9746 77.3438-75.6348 75.293-75.6348C73.291-75.6348 71.6309-73.9746 71.6309-71.9727L71.6309-64.3555C71.6309-62.3535 73.291-60.6934 75.293-60.6934ZM103.955-31.9824L111.572-31.9824C113.574-31.9824 115.186-33.5938 115.186-35.6445C115.186-37.6465 113.574-39.3066 111.572-39.3066L103.955-39.3066C102.002-39.3066 100.293-37.6465 100.293-35.6445C100.293-33.5938 102.002-31.9824 103.955-31.9824ZM98.4375-7.32422C99.8535-5.9082 102.148-5.95703 103.564-7.37305C104.98-8.78906 104.98-11.1328 103.564-12.5L98.0957-17.9199C96.6797-19.2871 94.3848-19.2871 92.9688-17.9199C91.6016-16.5039 91.6016-14.1602 92.9688-12.7441ZM92.9688-53.3203C94.3359-51.9043 96.7285-51.8555 98.1934-53.3203L103.564-58.7402C104.98-60.1074 104.98-62.4512 103.564-63.8672C102.148-65.2832 99.8535-65.2832 98.4375-63.8672L92.9688-58.3984C91.6016-57.0312 91.6504-54.6875 92.9688-53.3203ZM52.4414-53.3203C53.9062-51.8555 56.2988-51.9043 57.6172-53.3203C58.9844-54.6875 59.0332-57.0312 57.6172-58.3984L52.1484-63.8672C50.7812-65.2832 48.4863-65.2832 47.0703-63.8672C45.6543-62.4512 45.6543-60.1074 47.0703-58.7402Z"/>
  </g>
  <g id="Ultralight-S" transform="matrix(1 0 0 1 505.373 696)">
   <path class="monochrome-0 multicolor-0:white hierarchical-0:primary SFSymbolsPreviewFFFFFF" d="M18.9365 0.898445L61.0137 0.898445C71.2769 0.898445 79.3189-6.86084 79.3189-16.6563C79.3189-26.4448 71.085-33.8692 60.2358-33.9214C55.8413-42.4072 48.602-48.0723 38.5981-48.0723C26.6328-48.0723 16.8022-38.2681 15.7212-25.8067C9.41552-24.168 4.35693-19.3281 4.35693-12.3106C4.35693-5.06542 9.85547 0.898445 18.9365 0.898445Z"/>
   <path class="monochrome-1 multicolor-1:systemYellowColor hierarchical-1:secondary SFSymbolsPreviewFFCC00" d="M81.9732-19.3813C88.3501-22.6973 92.5752-28.7803 92.5752-36.1894C92.5752-46.1528 84.6206-54.1074 74.7481-54.1074C66.8325-54.1074 60.334-49.1875 57.9185-42.2373C59.4424-40.4444 60.7642-38.5503 61.8032-36.5733C73.1045-35.7295 80.4551-28.5845 81.9732-19.3813ZM74.7935-61.2383C75.3457-61.2383 75.8672-61.7632 75.8672-62.2666L75.8672-73.4258C75.8672-73.9746 75.3457-74.4087 74.7935-74.4087C74.1992-74.4087 73.7197-73.9746 73.7197-73.4258L73.7197-62.2666C73.7197-61.7632 74.1992-61.2383 74.7935-61.2383ZM100.731-35.2065L111.936-35.2065C112.575-35.2065 113.006-35.6372 113.006-36.1894C113.006-36.7837 112.575-37.2178 111.936-37.2178L100.731-37.2178C100.186-37.2178 99.7481-36.7837 99.7481-36.1894C99.7481-35.6372 100.186-35.2065 100.731-35.2065ZM100.345-9.14061C100.762-8.6782 101.422-8.72703 101.793-9.14403C102.21-9.51562 102.256-10.1792 101.793-10.5928L93.918-18.4648C93.501-18.8784 92.8408-18.8784 92.4692-18.4648C92.0557-18.0932 92.0557-17.4297 92.4692-17.0127ZM92.4692-53.8652C92.8374-53.4936 93.5044-53.4902 93.9248-53.8652L101.793-61.7373C102.256-62.1963 102.21-62.8145 101.793-63.2315C101.422-63.603 100.762-63.6485 100.345-63.2315L92.4692-55.356C92.0557-54.9424 92.0591-54.2788 92.4692-53.8652ZM55.6655-53.8652C56.0405-53.4902 56.7075-53.4936 57.1177-53.8652C57.4859-54.2788 57.4893-54.9424 57.1177-55.356L49.2422-63.2315C48.7832-63.6485 48.1685-63.603 47.7515-63.2315C47.3799-62.8145 47.3345-62.1963 47.7515-61.7373Z"/>
  </g>
 </g>
</svg>
